<?xml version="1.0" encoding="UTF-8"?>
<!DOCTYPE svg PUBLIC "-//W3C//DTD SVG 1.1//EN" "http://www.w3.org/Graphics/SVG/1.1/DTD/svg11.dtd">
<!-- Creator: CorelDRAW -->
<svg xmlns="http://www.w3.org/2000/svg" xml:space="preserve" width="1200px" height="600px" style="shape-rendering:geometricPrecision; text-rendering:geometricPrecision; image-rendering:optimizeQuality; fill-rule:evenodd; clip-rule:evenodd"
viewBox="0 0 1200 607.306"
 xmlns:xlink="http://www.w3.org/1999/xlink">
 <defs>
  <style type="text/css">
   <![CDATA[
    .fil1 {fill:#FF2600}
    .fil0 {fill:#4C4C4C;fill-rule:nonzero}
   ]]>
  </style>
 </defs>
 <g id="Layer_x0020_1">
  <metadata id="CorelCorpID_0Corel-Layer"/>
  <g id="_180320800">
   <path id="_180324688" class="fil0" d="M265.237 410.916l52.8084 0 0 -157.11 -52.8084 0 0 13.1196c-4.7544,-6.0684 -10.4952,-10.6044 -17.1636,-13.5564 -6.7248,-3.0072 -14.322,-4.4832 -22.8504,-4.4832 -21.3204,0 -39.0324,7.872 -53.136,23.616 -7.0524,8.0364 -12.354,17.0556 -15.9624,27.06 -3.5532,10.0032 -5.358,20.9904 -5.358,32.964 0,12.3 1.8048,23.4504 5.4672,33.4548 3.6084,10.0044 9.1296,18.8592 16.5084,26.5668 7.2168,7.7088 15.198,13.5036 23.8896,17.4396 8.7468,3.8808 18.258,5.8488 28.5912,5.8488 8.1996,0 15.6336,-1.6392 22.3572,-4.92 6.6696,-3.2808 12.5736,-8.1996 17.6568,-14.76l0 14.76zm-30.8304 -44.6076c-4.4292,0 -8.4744,-0.8208 -12.0816,-2.4588 -3.6624,-1.6404 -6.942,-4.1004 -9.8952,-7.3812 -2.952,-3.1164 -5.1924,-6.7236 -6.6684,-10.7688 -1.476,-3.99 -2.1864,-8.4192 -2.1864,-13.1736 0,-4.7568 0.7104,-9.1848 2.1864,-13.23 1.476,-4.1004 3.7164,-7.7628 6.6684,-11.0436 2.9532,-3.2784 6.2328,-5.7384 9.8952,-7.3788 3.6072,-1.6404 7.6524,-2.46 12.0816,-2.46 4.428,0 8.4732,0.8196 12.0804,2.46 3.6624,1.6404 6.9432,4.1004 9.8952,7.3788 2.952,3.2808 5.1936,6.9432 6.6696,11.0436 1.476,4.0452 2.1852,8.4732 2.1852,13.23 0,4.7544 -0.7092,9.1836 -2.1852,13.1736 -1.476,4.0452 -3.7176,7.6524 -6.6696,10.7688 -2.952,3.2808 -6.2328,5.7408 -9.8952,7.3812 -3.6072,1.638 -7.6524,2.4588 -12.0804,2.4588zm172.525 -112.502l-52.8072 0 0 221.398 52.8072 0 0 -77.4072c4.7556,6.0672 10.4952,10.6056 17.1648,13.5576 6.7236,3.006 14.3232,4.482 22.8516,4.482 10.6596,0 20.4984,-1.968 29.4648,-5.958 8.91,-3.936 16.9452,-9.9504 23.9976,-17.9856 7.0524,-7.872 12.3,-16.7832 15.7992,-26.7864 3.444,-9.9492 5.1936,-20.9376 5.1936,-32.9088 0,-12.3 -1.8048,-23.5068 -5.412,-33.6192 -3.6096,-10.1136 -9.0216,-19.0236 -16.236,-26.7324 -7.38,-7.7076 -15.4164,-13.4472 -24.1632,-17.274 -8.8008,-3.7716 -18.3132,-5.6856 -28.644,-5.6856 -8.1996,0 -15.6348,1.6404 -22.3596,4.92 -6.6684,3.2796 -12.5724,8.1996 -17.6568,14.76l0 -14.76zm30.8316 44.6076c4.428,0 8.4732,0.8196 12.0804,2.4048 3.6636,1.6404 6.9432,3.9912 9.8952,7.1076 2.952,3.2784 5.1936,6.942 6.6696,11.0424 1.476,4.0452 2.1876,8.472 2.1876,13.2288 0,4.7556 -0.7116,9.1836 -2.1876,13.2288 -1.476,4.1004 -3.7176,7.7628 -6.6696,11.0424 -2.952,3.2808 -6.2316,5.7408 -9.8952,7.3812 -3.6072,1.638 -7.6524,2.4588 -12.0804,2.4588 -4.4268,0 -8.472,-0.8208 -12.0816,-2.4588 -3.6612,-1.6404 -6.942,-4.1004 -9.894,-7.3812 -2.9508,-3.2796 -5.1936,-6.942 -6.6696,-11.0424 -1.476,-4.0452 -2.1864,-8.4732 -2.1864,-13.2288 0,-4.7568 0.7104,-9.1836 2.1864,-13.2288 1.476,-4.1004 3.7188,-7.764 6.6696,-11.0424 2.952,-3.1164 6.2328,-5.4672 9.894,-7.1076 3.6096,-1.5852 7.6548,-2.4048 12.0816,-2.4048zm158.188 0.6552c0,-2.7876 1.1472,-4.9188 3.444,-6.3408 2.2956,-1.476 5.7396,-2.1876 10.332,-2.1876 7.38,0 14.1588,1.3668 20.3352,4.1556 6.1776,2.7876 11.6448,6.9972 16.4004,12.5736l28.8636 -30.8316c-6.7236,-9.1836 -15.69,-16.0716 -26.8404,-20.664 -11.2068,-4.5924 -24.6552,-6.888 -40.3992,-6.888 -20.0076,0 -35.7504,4.92 -47.2308,14.76 -5.7408,5.0832 -10.0044,10.4964 -12.8472,16.29 -2.7876,5.85 -4.2084,12.0816 -4.2084,18.8052 0,4.428 0.4908,8.5824 1.4748,12.5184 0.9852,3.8808 2.4612,7.4904 4.428,10.7688 1.9692,3.4452 4.2096,6.3972 6.6696,8.9112 2.4612,2.46 5.1396,4.5372 8.0904,6.1776 2.7876,1.8036 5.7948,3.444 9.0204,4.9752 3.2244,1.4748 6.5604,2.8956 10.0032,4.2084 3.4452,1.3128 6.7236,2.46 9.8952,3.444 3.1164,0.984 6.1776,1.8048 9.1284,2.46 2.7876,0.6564 5.412,1.4208 7.818,2.2404 2.46,0.876 4.6464,1.86 6.6144,3.0072 3.936,2.2968 5.904,4.9212 5.904,7.8732 0,2.9508 -1.2036,5.1924 -3.6624,6.6684 -2.4048,1.476 -6.0132,2.1864 -10.77,2.1864 -8.364,0 -16.2348,-1.5312 -23.5608,-4.6464 -7.3788,-3.1152 -14.1576,-7.818 -20.3904,-14.0484l-28.536 33.4548c8.1996,9.0204 18.0948,15.744 29.7384,20.226 11.5896,4.428 24.8736,6.6696 39.7968,6.6696 10.9884,0 20.8284,-1.2576 29.466,-3.7176 8.5824,-2.514 15.9624,-6.2856 22.0296,-11.3712 6.0684,-4.9188 10.6056,-10.386 13.5576,-16.4532 3.006,-6.0132 4.482,-12.5736 4.482,-19.6248 0,-5.5764 -0.6552,-10.6596 -2.022,-15.3072 -1.3116,-4.5912 -3.39,-8.8008 -6.1776,-12.5736 -2.7876,-3.6072 -5.7948,-6.7236 -9.0744,-9.2928 -3.2796,-2.6244 -6.8328,-4.6464 -10.6044,-6.1224 -3.936,-1.476 -7.8732,-2.8428 -11.754,-4.1544 -3.936,-1.2576 -7.7628,-2.4048 -11.5344,-3.39 -3.7716,-0.8196 -7.2708,-1.8036 -10.5504,-2.898 -3.2796,-1.038 -6.342,-2.1852 -9.1296,-3.3336 -2.7876,-1.1472 -4.8648,-2.4048 -6.1764,-3.7716 -1.3668,-1.3668 -2.0232,-2.952 -2.0232,-4.7568zm189.545 -17.2308l9.4212 0 0 -28.032 -9.4212 0 0 2.34c-0.8484,-1.0836 -1.872,-1.8924 -3.0624,-2.4192 -1.1988,-0.5376 -2.5548,-0.8004 -4.0776,-0.8004 -3.804,0 -6.9636,1.404 -9.4812,4.2144 -1.2588,1.434 -2.2032,3.0432 -2.8476,4.8276 -0.6348,1.7856 -0.9564,3.7464 -0.9564,5.8824 0,2.196 0.3216,4.1844 0.9756,5.97 0.6432,1.7832 1.6284,3.3636 2.9472,4.7412 1.2864,1.374 2.7108,2.4072 4.26,3.1092 1.5612,0.6924 3.2592,1.0452 5.1024,1.0452 1.464,0 2.79,-0.2928 3.9912,-0.8784 1.188,-0.5844 2.2416,-1.464 3.1488,-2.6352l0 2.6352zm-5.5008 -7.9596c-0.7896,0 -1.5132,-0.1476 -2.1564,-0.438 -0.6516,-0.294 -1.2372,-0.732 -1.764,-1.3176 -0.528,-0.5556 -0.9276,-1.2 -1.1916,-1.9212 -0.2628,-0.7128 -0.39,-1.5024 -0.39,-2.3508 0,-0.8484 0.1272,-1.638 0.39,-2.3616 0.264,-0.7296 0.6636,-1.3848 1.1916,-1.9692 0.5268,-0.5856 1.1124,-1.0236 1.764,-1.3176 0.6432,-0.2916 1.3668,-0.4392 2.1564,-0.4392 0.7908,0 1.5108,0.1476 2.154,0.4392 0.654,0.294 1.2396,0.732 1.7664,1.3176 0.5268,0.5844 0.9276,1.2396 1.1916,1.9692 0.2628,0.7236 0.3888,1.5132 0.3888,2.3616 0,0.8484 -0.126,1.638 -0.3888,2.3508 -0.264,0.7212 -0.6648,1.3656 -1.1916,1.9212 -0.5268,0.5856 -1.1124,1.0236 -1.7664,1.3176 -0.6432,0.2904 -1.3632,0.438 -2.154,0.438zm49.5696 7.9596l0 -40.2648 -9.4224 0 0 14.5728c-0.8484,-1.0836 -1.872,-1.8924 -3.0612,-2.4192 -1.2,-0.5376 -2.5572,-0.8004 -4.0776,-0.8004 -3.8052,0 -6.9648,1.404 -9.4812,4.2144 -1.26,1.434 -2.2056,3.0432 -2.8488,4.8276 -0.6336,1.7856 -0.9564,3.7464 -0.9564,5.8824 0,2.196 0.3228,4.1844 0.9768,5.97 0.6432,1.7832 1.6284,3.3636 2.946,4.7412 1.2864,1.374 2.7108,2.4072 4.2612,3.1092 1.5612,0.6924 3.2592,1.0452 5.1024,1.0452 1.4628,0 2.79,-0.2928 3.99,-0.8784 1.1892,-0.5844 2.2416,-1.464 3.1488,-2.6352l0 2.6352 9.4224 0zm-14.922 -7.9596c-0.7908,0 -1.5132,-0.1476 -2.1564,-0.438 -0.6528,-0.294 -1.2384,-0.732 -1.7652,-1.3176 -0.528,-0.5556 -0.9264,-1.2 -1.1904,-1.9212 -0.2628,-0.7128 -0.39,-1.5024 -0.39,-2.3508 0,-0.8484 0.1272,-1.638 0.39,-2.3616 0.264,-0.7296 0.6624,-1.3848 1.1904,-1.9692 0.5268,-0.5856 1.1124,-1.0236 1.7652,-1.3176 0.6432,-0.2916 1.3656,-0.4392 2.1564,-0.4392 0.7884,0 1.5108,0.1476 2.154,0.4392 0.654,0.294 1.2396,0.732 1.7664,1.3176 0.5268,0.5844 0.9264,1.2396 1.1904,1.9692 0.2628,0.7236 0.3888,1.5132 0.3888,2.3616 0,0.8484 -0.126,1.638 -0.3888,2.3508 -0.264,0.7212 -0.6636,1.3656 -1.1904,1.9212 -0.5268,0.5856 -1.1124,1.0236 -1.7664,1.3176 -0.6432,0.2904 -1.3656,0.438 -2.154,0.438zm40.6164 7.9596l9.5388 -28.032 -9.5388 0 -5.9124 19.722 -5.6184 -19.722 -10.3584 0 9.6564 28.032 12.2328 0zm32.1276 0l9.4236 0 0 -28.032 -9.4236 0 0 2.34c-0.8484,-1.0836 -1.8708,-1.8924 -3.0612,-2.4192 -1.2,-0.5376 -2.556,-0.8004 -4.0764,-0.8004 -3.8052,0 -6.9648,1.404 -9.4824,4.2144 -1.2588,1.434 -2.2044,3.0432 -2.8488,4.8276 -0.6336,1.7856 -0.9552,3.7464 -0.9552,5.8824 0,2.196 0.3216,4.1844 0.9756,5.97 0.6444,1.7832 1.6272,3.3636 2.946,4.7412 1.2864,1.374 2.712,2.4072 4.2612,3.1092 1.5612,0.6924 3.258,1.0452 5.1036,1.0452 1.4616,0 2.7888,-0.2928 3.9888,-0.8784 1.188,-0.5844 2.2416,-1.464 3.1488,-2.6352l0 2.6352zm-5.5008 -7.9596c-0.7884,0 -1.512,-0.1476 -2.1552,-0.438 -0.6528,-0.294 -1.2384,-0.732 -1.7652,-1.3176 -0.528,-0.5556 -0.9264,-1.2 -1.1892,-1.9212 -0.264,-0.7128 -0.3912,-1.5024 -0.3912,-2.3508 0,-0.8484 0.1272,-1.638 0.3912,-2.3616 0.2628,-0.7296 0.6612,-1.3848 1.1892,-1.9692 0.5268,-0.5856 1.1124,-1.0236 1.7652,-1.3176 0.6432,-0.2916 1.3668,-0.4392 2.1552,-0.4392 0.7908,0 1.512,0.1476 2.1564,0.4392 0.654,0.294 1.2384,0.732 1.7652,1.3176 0.5256,0.5844 0.9264,1.2396 1.1904,1.9692 0.2628,0.7236 0.3888,1.5132 0.3888,2.3616 0,0.8484 -0.126,1.638 -0.3888,2.3508 -0.264,0.7212 -0.6648,1.3656 -1.1904,1.9212 -0.5268,0.5856 -1.1112,1.0236 -1.7652,1.3176 -0.6444,0.2904 -1.3656,0.438 -2.1564,0.438zm21.3624 7.9596l9.4224 0 0 -15.4512c0,-0.702 0.0972,-1.3356 0.3024,-1.8912 0.1944,-0.5652 0.4884,-1.0632 0.8676,-1.5024 0.7608,-0.8184 1.7556,-1.23 2.9844,-1.23 1.2288,0 2.226,0.4116 2.9856,1.23 0.3804,0.4392 0.6636,0.9372 0.8376,1.5024 0.186,0.5556 0.2736,1.1892 0.2736,1.8912l0 15.4512 9.4236 0 0 -16.7376c0,-3.8052 -0.9372,-6.7896 -2.8104,-8.9544 -0.9348,-1.0836 -2.0376,-1.8924 -3.2964,-2.4192 -1.2672,-0.5376 -2.7012,-0.8004 -4.3116,-0.8004 -1.668,0 -3.1104,0.3624 -4.3308,1.0932 -1.2192,0.7212 -2.1924,1.8036 -2.9256,3.2376l0 -3.4512 -9.4224 0 0 28.032zm58.4076 -24.4044c-1.434,-1.4928 -3.12,-2.6136 -5.0532,-3.3744 -1.9308,-0.7524 -4.1064,-1.1328 -6.534,-1.1328 -2.0484,0 -3.9504,0.3624 -5.7072,1.0932 -1.7544,0.7212 -3.3636,1.8036 -4.8276,3.2376 -1.4628,1.4628 -2.5548,3.072 -3.2868,4.8384 -0.732,1.7556 -1.1028,3.678 -1.1028,5.7552 0,2.0484 0.3708,3.9504 1.1028,5.6964 0.7416,1.7556 1.854,3.3456 3.3456,4.7796 2.9268,2.9268 6.4968,4.3896 10.7088,4.3896 1.1424,0 2.244,-0.1068 3.2976,-0.3132 1.0632,-0.2052 2.088,-0.5064 3.0828,-0.9156 0.9948,-0.4392 1.8816,-0.9276 2.6724,-1.464 0.7812,-0.5364 1.4532,-1.14 2.01,-1.8144l-4.6824 -6.906c-0.9072,0.8484 -1.8732,1.4928 -2.8968,1.9212 -1.0248,0.4404 -2.106,0.654 -3.2484,0.654 -0.8772,0 -1.6692,-0.1476 -2.3796,-0.438 -0.7032,-0.294 -1.3368,-0.732 -1.8924,-1.3176 -0.5556,-0.5556 -0.9756,-1.2 -1.2696,-1.9212 -0.282,-0.7128 -0.4284,-1.5024 -0.4284,-2.3508 0,-0.8784 0.1368,-1.6872 0.4008,-2.4204 0.2736,-0.7296 0.6816,-1.3836 1.2384,-1.9692 0.5556,-0.5568 1.1892,-0.9744 1.902,-1.2684 0.7116,-0.282 1.5216,-0.4296 2.4288,-0.4296 1.1424,0 2.196,0.1968 3.1608,0.576 0.9648,0.39 1.8432,0.9756 2.6328,1.7652l5.3256 -6.6708zm17.6172 25.2828c1.17,0 2.2908,-0.1068 3.3732,-0.3132 1.074,-0.2148 2.0976,-0.5364 3.0636,-0.9744 0.966,-0.4392 1.8252,-0.9276 2.5848,-1.4532 0.7512,-0.5376 1.3944,-1.122 1.9212,-1.7664l-4.8 -6.3792c-1.6956,1.7568 -3.6264,2.634 -5.7936,2.634 -0.7596,0 -1.4616,-0.0972 -2.106,-0.3024 -0.6432,-0.1944 -1.2288,-0.4884 -1.7556,-0.8676 -0.5268,-0.3804 -0.966,-0.8196 -1.326,-1.3368 -0.3528,-0.5076 -0.6336,-1.0932 -0.8388,-1.7664l19.02 0c0.0588,-0.2916 0.1068,-0.6816 0.138,-1.1796 0.0276,-0.4884 0.0372,-1.074 0.0372,-1.7448 0,-2.0508 -0.3504,-3.9216 -1.044,-5.6292 -0.7008,-1.6968 -1.7364,-3.2376 -3.1104,-4.614 -1.4064,-1.3752 -2.9652,-2.4 -4.6932,-3.0828 -1.7256,-0.672 -3.618,-1.014 -5.6664,-1.014 -2.0172,0 -3.8904,0.3624 -5.598,1.0932 -1.7172,0.7212 -3.2688,1.8036 -4.644,3.2376 -1.404,1.4628 -2.4588,3.072 -3.1596,4.8384 -0.702,1.7556 -1.0548,3.678 -1.0548,5.7552 0,2.0772 0.372,3.99 1.1028,5.7456 0.7428,1.7652 1.854,3.354 3.3468,4.788 1.4628,1.434 3.1104,2.5176 4.956,3.2388 1.8324,0.732 3.8508,1.0932 6.0468,1.0932zm-0.8208 -21.888c1.2012,0 2.1852,0.3012 2.9568,0.9156 0.7704,0.6048 1.3452,1.512 1.7256,2.712l-9.3648 0c0.4116,-1.2 1.0056,-2.1072 1.7964,-2.712 0.78,-0.6144 1.7448,-0.9156 2.886,-0.9156zm47.1708 21.0096l0 -40.2648 -9.4224 0 0 14.5728c-0.8496,-1.0836 -1.872,-1.8924 -3.0636,-2.4192 -1.1988,-0.5376 -2.5548,-0.8004 -4.0752,-0.8004 -3.8052,0 -6.9648,1.404 -9.4812,4.2144 -1.26,1.434 -2.2056,3.0432 -2.85,4.8276 -0.6336,1.7856 -0.9552,3.7464 -0.9552,5.8824 0,2.196 0.3216,4.1844 0.9756,5.97 0.6444,1.7832 1.6284,3.3636 2.946,4.7412 1.2864,1.374 2.712,2.4072 4.2624,3.1092 1.5612,0.6924 3.2568,1.0452 5.1024,1.0452 1.4616,0 2.7876,-0.2928 3.9888,-0.8784 1.1892,-0.5844 2.2428,-1.464 3.15,-2.6352l0 2.6352 9.4224 0zm-14.9232 -7.9596c-0.7896,0 -1.512,-0.1476 -2.1564,-0.438 -0.6528,-0.294 -1.2384,-0.732 -1.7652,-1.3176 -0.528,-0.5556 -0.9276,-1.2 -1.1892,-1.9212 -0.264,-0.7128 -0.3912,-1.5024 -0.3912,-2.3508 0,-0.8484 0.1272,-1.638 0.3912,-2.3616 0.2616,-0.7296 0.6612,-1.3848 1.1892,-1.9692 0.5268,-0.5856 1.1124,-1.0236 1.7652,-1.3176 0.6444,-0.2916 1.3668,-0.4392 2.1564,-0.4392 0.7896,0 1.5108,0.1476 2.1552,0.4392 0.654,0.294 1.2396,0.732 1.7652,1.3176 0.5268,0.5844 0.9276,1.2396 1.1904,1.9692 0.264,0.7236 0.39,1.5132 0.39,2.3616 0,0.8484 -0.126,1.638 -0.39,2.3508 -0.2628,0.7212 -0.6636,1.3656 -1.1904,1.9212 -0.5256,0.5856 -1.1112,1.0236 -1.7652,1.3176 -0.6444,0.2904 -1.3656,0.438 -2.1552,0.438zm-234.568 44.4648l-9.4224 0 0 39.504 9.4224 0 0 -13.812c0.8484,1.0848 1.8732,1.8924 3.0624,2.4204 1.2,0.5352 2.556,0.8004 4.0776,0.8004 1.902,0 3.6564,-0.3528 5.2572,-1.0656 1.5912,-0.7008 3.0252,-1.7736 4.2828,-3.2076 1.2576,-1.4052 2.1948,-2.9952 2.8176,-4.7796 0.6156,-1.776 0.9276,-3.7356 0.9276,-5.8728 0,-2.1948 -0.3216,-4.194 -0.9648,-5.9976 -0.6444,-1.8048 -1.6104,-3.3936 -2.898,-4.7712 -1.3176,-1.3752 -2.7504,-2.4 -4.3116,-3.0816 -1.5696,-0.6732 -3.2664,-1.014 -5.1108,-1.014 -1.4628,0 -2.79,0.2928 -3.99,0.8772 -1.188,0.5856 -2.2428,1.4628 -3.15,2.6328l0 -2.6328zm5.502 7.9584c0.7884,0 1.512,0.1476 2.154,0.4308 0.654,0.2916 1.2396,0.7116 1.7664,1.2672 0.5256,0.5856 0.9264,1.2396 1.1892,1.9704 0.264,0.7224 0.3912,1.512 0.3912,2.3604 0,0.8496 -0.1272,1.6392 -0.3912,2.3604 -0.2628,0.732 -0.6636,1.386 -1.1892,1.9716 -0.5268,0.5856 -1.1124,1.0236 -1.7664,1.3152 -0.642,0.2928 -1.3656,0.4404 -2.154,0.4404 -0.7908,0 -1.5132,-0.1476 -2.1552,-0.4404 -0.6552,-0.2916 -1.2396,-0.7296 -1.7664,-1.3152 -0.5256,-0.5856 -0.9264,-1.2396 -1.1904,-1.9716 -0.2628,-0.7212 -0.39,-1.5108 -0.39,-2.3604 0,-0.8484 0.1272,-1.638 0.39,-2.3604 0.264,-0.7308 0.6648,-1.3848 1.1904,-1.9704 0.5268,-0.5556 1.1112,-0.9756 1.7664,-1.2672 0.642,-0.2832 1.3644,-0.4308 2.1552,-0.4308zm19.7232 20.0748l9.42 0 0 -15.1572c0,-0.7032 0.09,-1.3368 0.2568,-1.8924 0.174,-0.5664 0.4176,-1.0644 0.7404,-1.5024 0.3216,-0.4104 0.7116,-0.7224 1.17,-0.9276 0.4584,-0.204 0.966,-0.3012 1.5216,-0.3012 0.7608,0 1.464,0.1176 2.0976,0.3408 0.6444,0.234 1.2096,0.5664 1.7064,1.0044l3.8616 -8.8944c-0.5844,-0.5268 -1.2672,-0.9276 -2.0568,-1.1904 -0.7812,-0.2628 -1.6584,-0.39 -2.6244,-0.39 -1.4616,0 -2.7492,0.4392 -3.8616,1.3068 -1.1124,0.8772 -2.0484,2.1756 -2.8116,3.9012l0 -4.3308 -9.42 0 0 28.0332zm34.2948 0.8796c4.0968,0 7.6092,-1.4652 10.5336,-4.3896 1.4628,-1.4352 2.5656,-3.024 3.2976,-4.7796 0.732,-1.746 1.092,-3.6504 1.092,-5.6976 0,-2.0772 -0.36,-3.9996 -1.092,-5.7552 -0.732,-1.7652 -1.8348,-3.3744 -3.2976,-4.8384 -1.4628,-1.4328 -3.0708,-2.5164 -4.8276,-3.2364 -1.7556,-0.732 -3.6576,-1.0932 -5.706,-1.0932 -2.0496,0 -3.9504,0.3612 -5.7072,1.0932 -1.7556,0.72 -3.3648,1.8036 -4.8276,3.2364 -1.4628,1.464 -2.5548,3.0732 -3.2868,4.8384 -0.7332,1.7556 -1.1028,3.678 -1.1028,5.7552 0,2.0472 0.3696,3.9516 1.1028,5.6976 0.732,1.7556 1.824,3.3444 3.2868,4.7796 2.9268,2.9244 6.438,4.3896 10.5348,4.3896zm0 -8.838c-0.7896,0 -1.512,-0.1476 -2.1564,-0.4404 -0.6528,-0.2916 -1.2384,-0.7296 -1.7652,-1.3152 -0.5268,-0.5568 -0.9264,-1.2012 -1.1892,-1.9212 -0.264,-0.7128 -0.3912,-1.5036 -0.3912,-2.352 0,-0.8484 0.1272,-1.638 0.3912,-2.3604 0.2628,-0.732 0.6624,-1.386 1.1892,-1.9704 0.5268,-0.5856 1.1124,-1.0236 1.7652,-1.3164 0.6444,-0.2928 1.3668,-0.4404 2.1564,-0.4404 0.7896,0 1.5108,0.1476 2.1552,0.4404 0.654,0.2928 1.2384,0.7308 1.7652,1.3164 0.5268,0.5844 0.9264,1.2384 1.1904,1.9704 0.2628,0.7224 0.3888,1.512 0.3888,2.3604 0,0.8484 -0.126,1.6392 -0.3888,2.352 -0.264,0.72 -0.6636,1.3644 -1.1904,1.9212 -0.5268,0.5856 -1.1112,1.0236 -1.7652,1.3152 -0.6444,0.2928 -1.3656,0.4404 -2.1552,0.4404zm22.4148 -20.0748l-5.3244 0 0 8.2524 5.2668 0 0 8.838c0,3.8028 0.9348,6.7284 2.808,8.778 0.9072,1.0236 1.9908,1.7844 3.2484,2.292 1.2588,0.4968 2.6928,0.7524 4.3008,0.7524 1.8156,0 3.4452,-0.2652 4.8792,-0.8004 1.4436,-0.528 2.7012,-1.3356 3.7848,-2.4204l-4.098 -6.9648c-0.3504,0.4404 -0.7704,0.7704 -1.2684,1.0056 -0.486,0.2244 -1.044,0.342 -1.6572,0.342 -0.7908,0 -1.3848,-0.2628 -1.7952,-0.8004 -0.3996,-0.5268 -0.6048,-1.3356 -0.6048,-2.4204l0 -8.6016 7.0236 0 0 -8.2524 -7.14 0 0 -7.608 -9.4236 0 0 7.608zm36.5796 28.9128c1.17,0 2.292,-0.108 3.3732,-0.3144 1.074,-0.2136 2.0988,-0.5352 3.0648,-0.9744 0.966,-0.4392 1.824,-0.9264 2.5836,-1.4532 0.7512,-0.5376 1.3956,-1.1232 1.9224,-1.7664l-4.8 -6.3792c-1.6968,1.7556 -3.6264,2.6352 -5.7936,2.6352 -0.7596,0 -1.4628,-0.0996 -2.106,-0.3036 -0.6444,-0.1944 -1.23,-0.4872 -1.7568,-0.8664 -0.5268,-0.3804 -0.966,-0.8208 -1.326,-1.338 -0.3516,-0.5076 -0.6336,-1.0932 -0.8376,-1.7652l19.02 0c0.0576,-0.294 0.1068,-0.6828 0.1368,-1.1808 0.0276,-0.4872 0.0384,-1.0728 0.0384,-1.746 0,-2.0484 -0.3528,-3.9204 -1.0452,-5.6268 -0.7008,-1.6968 -1.7352,-3.2376 -3.1104,-4.6152 -1.4052,-1.3752 -2.9652,-2.4 -4.692,-3.0816 -1.7256,-0.6732 -3.6192,-1.014 -5.6664,-1.014 -2.0196,0 -3.8928,0.3612 -5.5992,1.0932 -1.716,0.72 -3.2676,1.8036 -4.6428,3.2364 -1.404,1.464 -2.4588,3.0732 -3.1596,4.8384 -0.7032,1.7556 -1.056,3.678 -1.056,5.7552 0,2.0784 0.3708,3.99 1.104,5.7456 0.7416,1.7664 1.8528,3.3552 3.3456,4.7892 1.4628,1.4328 3.1104,2.5176 4.9548,3.2376 1.8336,0.732 3.8532,1.0944 6.048,1.0944zm-0.8208 -21.8892c1.2012,0 2.1852,0.3012 2.9568,0.9168 0.7692,0.6036 1.3452,1.5108 1.7256,2.712l-9.3636 0c0.4104,-1.2012 1.0044,-2.1084 1.7952,-2.712 0.78,-0.6156 1.746,-0.9168 2.886,-0.9168zm43.8348 -3.3936c-1.4328,-1.4928 -3.12,-2.6148 -5.052,-3.3768 -1.9308,-0.75 -4.1076,-1.1304 -6.5352,-1.1304 -2.0484,0 -3.9516,0.3612 -5.706,1.0932 -1.7556,0.72 -3.366,1.8036 -4.8288,3.2364 -1.464,1.464 -2.5548,3.0732 -3.2856,4.8384 -0.7332,1.7556 -1.1028,3.678 -1.1028,5.7552 0,2.0472 0.3696,3.9516 1.1028,5.6976 0.7404,1.7556 1.8528,3.3444 3.3456,4.7796 2.9256,2.9244 6.4956,4.3896 10.7076,4.3896 1.1424,0 2.2452,-0.108 3.2976,-0.3144 1.0632,-0.2052 2.088,-0.5064 3.084,-0.9144 0.9936,-0.4404 1.8804,-0.9276 2.6712,-1.4652 0.7812,-0.5352 1.4532,-1.14 2.01,-1.8144l-4.6812 -6.9048c-0.9072,0.8472 -1.8732,1.4916 -2.8992,1.9212 -1.0236,0.4392 -2.106,0.654 -3.2472,0.654 -0.8772,0 -1.668,-0.1476 -2.3796,-0.4404 -0.702,-0.2916 -1.3368,-0.7296 -1.8936,-1.3152 -0.5544,-0.5568 -0.9744,-1.2012 -1.2672,-1.9212 -0.2832,-0.7128 -0.4296,-1.5036 -0.4296,-2.352 0,-0.8784 0.1368,-1.6872 0.4008,-2.4192 0.2736,-0.7308 0.6828,-1.3848 1.2384,-1.9704 0.5556,-0.5556 1.1904,-0.9756 1.9032,-1.2672 0.7104,-0.2832 1.5204,-0.4308 2.4276,-0.4308 1.1412,0 2.1948,0.198 3.1608,0.5772 0.9648,0.3888 1.8432,0.9744 2.6328,1.764l5.3256 -6.6696zm6.498 -3.63l-5.3268 0 0 8.2524 5.2668 0 0 8.838c0,3.8028 0.936,6.7284 2.8092,8.778 0.9072,1.0236 1.9908,1.7844 3.2472,2.292 1.26,0.4968 2.694,0.7524 4.3032,0.7524 1.8144,0 3.4428,-0.2652 4.8768,-0.8004 1.4448,-0.528 2.7012,-1.3356 3.7848,-2.4204l-4.0968 -6.9648c-0.3516,0.4404 -0.7704,0.7704 -1.2684,1.0056 -0.4872,0.2244 -1.0428,0.342 -1.6584,0.342 -0.7896,0 -1.3836,-0.2628 -1.7952,-0.8004 -0.3996,-0.5268 -0.6036,-1.3356 -0.6036,-2.4204l0 -8.6016 7.0236 0 0 -8.2524 -7.1412 0 0 -7.608 -9.4212 0 0 7.608zm27.4488 -2.5164c0.7296,0 1.4136,-0.1368 2.0568,-0.3996 0.6336,-0.264 1.2192,-0.654 1.746,-1.1796 0.498,-0.4992 0.8784,-1.0536 1.1316,-1.6692 0.2628,-0.6132 0.3888,-1.2876 0.3888,-2.0184 0,-0.732 -0.1356,-1.4136 -0.3996,-2.058 -0.2616,-0.6348 -0.6528,-1.2192 -1.1796,-1.746 -0.5268,-0.498 -1.1016,-0.8784 -1.7172,-1.1316 -0.624,-0.264 -1.2972,-0.3912 -2.0268,-0.3912 -0.7332,0 -1.4052,0.1272 -2.0208,0.3912 -0.6132,0.2532 -1.1712,0.6336 -1.6668,1.1316 -0.5268,0.5268 -0.918,1.1112 -1.1808,1.746 -0.264,0.6444 -0.3984,1.326 -0.3984,2.058 0,0.7308 0.1344,1.4148 0.3984,2.0484 0.2628,0.6336 0.654,1.1988 1.1808,1.698 0.4956,0.4956 1.0536,0.876 1.6668,1.1304 0.6156,0.264 1.2876,0.39 2.0208,0.39zm-4.6836 30.5496l9.4224 0 0 -28.0332 -9.4224 0 0 28.0332zm29.1456 0.8796c4.098,0 7.608,-1.4652 10.5348,-4.3896 1.4628,-1.4352 2.5656,-3.024 3.2976,-4.7796 0.7296,-1.746 1.092,-3.6504 1.092,-5.6976 0,-2.0772 -0.3624,-3.9996 -1.092,-5.7552 -0.732,-1.7652 -1.8348,-3.3744 -3.2976,-4.8384 -1.4628,-1.4328 -3.072,-2.5164 -4.8276,-3.2364 -1.7556,-0.732 -3.6588,-1.0932 -5.7072,-1.0932 -2.0484,0 -3.9504,0.3612 -5.706,1.0932 -1.7556,0.72 -3.366,1.8036 -4.8276,3.2364 -1.4652,1.464 -2.556,3.0732 -3.2868,4.8384 -0.7332,1.7556 -1.1028,3.678 -1.1028,5.7552 0,2.0472 0.3696,3.9516 1.1028,5.6976 0.7308,1.7556 1.8216,3.3444 3.2868,4.7796 2.9256,2.9244 6.438,4.3896 10.5336,4.3896zm0 -8.838c-0.7884,0 -1.512,-0.1476 -2.1552,-0.4404 -0.6528,-0.2916 -1.2384,-0.7296 -1.7652,-1.3152 -0.528,-0.5568 -0.9264,-1.2012 -1.1904,-1.9212 -0.2628,-0.7128 -0.39,-1.5036 -0.39,-2.352 0,-0.8484 0.1272,-1.638 0.39,-2.3604 0.264,-0.732 0.6624,-1.386 1.1904,-1.9704 0.5268,-0.5856 1.1124,-1.0236 1.7652,-1.3164 0.6432,-0.2928 1.3668,-0.4404 2.1552,-0.4404 0.7908,0 1.512,0.1476 2.1552,0.4404 0.654,0.2928 1.2396,0.7308 1.7664,1.3164 0.5256,0.5844 0.9264,1.2384 1.1904,1.9704 0.2628,0.7224 0.3888,1.512 0.3888,2.3604 0,0.8484 -0.126,1.6392 -0.3888,2.352 -0.264,0.72 -0.6648,1.3644 -1.1904,1.9212 -0.5268,0.5856 -1.1124,1.0236 -1.7664,1.3152 -0.6432,0.2928 -1.3644,0.4404 -2.1552,0.4404zm19.7244 7.9584l9.4212 0 0 -15.45c0,-0.702 0.0984,-1.3356 0.3036,-1.8924 0.1944,-0.5652 0.4872,-1.0632 0.8664,-1.5024 0.7608,-0.8184 1.7568,-1.23 2.9856,-1.23 1.2288,0 2.2248,0.4116 2.9856,1.23 0.3804,0.4392 0.6624,0.9372 0.8364,1.5024 0.1872,0.5568 0.2736,1.1904 0.2736,1.8924l0 15.45 9.4236 0 0 -16.7364c0,-3.8052 -0.936,-6.7908 -2.8092,-8.9544 -0.936,-1.0848 -2.0388,-1.8936 -3.2964,-2.4204 -1.2672,-0.5376 -2.7012,-0.7992 -4.3116,-0.7992 -1.668,0 -3.1128,0.3612 -4.3308,1.0932 -1.2192,0.72 -2.1948,1.8036 -2.9268,3.2364l0 -3.4524 -9.4212 0 0 28.0332zm-240.948 44.5824c0,-0.498 0.204,-0.8772 0.6132,-1.1316 0.4092,-0.264 1.0236,-0.39 1.8432,-0.39 1.3176,0 2.5272,0.2436 3.6276,0.7416 1.1028,0.4956 2.0784,1.248 2.9268,2.2428l5.1504 -5.5008c-1.1988,-1.6392 -2.7984,-2.868 -4.7892,-3.6876 -1.9992,-0.8184 -4.398,-1.2288 -7.2084,-1.2288 -3.5688,0 -6.378,0.8772 -8.4276,2.634 -1.0224,0.9072 -1.7832,1.8732 -2.292,2.9064 -0.4968,1.044 -0.75,2.1564 -0.75,3.3552 0,0.7896 0.0876,1.5312 0.2628,2.2332 0.1752,0.6936 0.438,1.3368 0.7908,1.9224 0.3492,0.6144 0.75,1.1412 1.188,1.59 0.4404,0.438 0.918,0.8088 1.4448,1.1016 0.4968,0.3216 1.0344,0.6144 1.6092,0.888 0.576,0.264 1.1712,0.5172 1.7844,0.7512 0.6156,0.234 1.2012,0.4392 1.7664,0.6144 0.5556,0.1752 1.1028,0.3216 1.6296,0.4392 0.4968,0.1164 0.9648,0.2532 1.3932,0.3996 0.4392,0.1548 0.8304,0.3324 1.1808,0.5352 0.7032,0.4116 1.0524,0.8796 1.0524,1.4064 0,0.5268 -0.2136,0.9252 -0.6516,1.1892 -0.4296,0.264 -1.074,0.39 -1.9224,0.39 -1.4916,0 -2.8968,-0.2736 -4.2024,-0.828 -1.3176,-0.5568 -2.5272,-1.3956 -3.6396,-2.5068l-5.0916 5.9688c1.4628,1.608 3.228,2.8092 5.3064,3.6084 2.0676,0.7908 4.4388,1.1916 7.1016,1.1916 1.9596,0 3.7164,-0.2256 5.2572,-0.6648 1.53,-0.4488 2.8476,-1.1208 3.93,-2.028 1.0836,-0.8784 1.8924,-1.854 2.4204,-2.9364 0.5352,-1.0728 0.7992,-2.244 0.7992,-3.5016 0,-0.9948 -0.1164,-1.902 -0.3612,-2.7312 -0.234,-0.8184 -0.6048,-1.5708 -1.1016,-2.2428 -0.4992,-0.6432 -1.0344,-1.2012 -1.62,-1.6596 -0.5856,-0.4668 -1.2192,-0.8292 -1.8924,-1.092 -0.702,-0.264 -1.4052,-0.5064 -2.0976,-0.7416 -0.7008,-0.2244 -1.3848,-0.4284 -2.0568,-0.6036 -0.6732,-0.1476 -1.2984,-0.3228 -1.884,-0.5184 -0.5844,-0.1848 -1.1304,-0.3888 -1.6284,-0.5952 -0.498,-0.204 -0.8676,-0.4272 -1.1016,-0.672 -0.2448,-0.2436 -0.36,-0.5268 -0.36,-0.8484zm37.56 -8.0772l-5.3832 16.212 -6.6144 -16.212 -10.416 0 12.9336 28.5012c-0.4392,1.0248 -0.966,1.7868 -1.5912,2.2932 -0.6336,0.498 -1.3656,0.7512 -2.214,0.7512 -1.698,0 -3.2184,-0.6444 -4.5648,-1.932l-4.1556 7.3752c1.2,1.14 2.5356,1.9896 3.9996,2.556 1.4628,0.5544 3.0528,0.8376 4.7796,0.8376 2.8392,0 5.2668,-0.8292 7.2756,-2.496 2.0004,-1.6596 3.5808,-4.146 4.722,-7.4532l10.71 -30.4332 -9.4812 0zm20.6484 8.0772c0,-0.498 0.204,-0.8772 0.6132,-1.1316 0.4104,-0.264 1.0248,-0.39 1.8432,-0.39 1.3176,0 2.5272,0.2436 3.6288,0.7416 1.1016,0.4956 2.0784,1.248 2.9268,2.2428l5.1492 -5.5008c-1.2,-1.6392 -2.7996,-2.868 -4.7892,-3.6876 -1.9992,-0.8184 -4.3992,-1.2288 -7.2072,-1.2288 -3.5712,0 -6.3792,0.8772 -8.4276,2.634 -1.0236,0.9072 -1.7856,1.8732 -2.2932,2.9064 -0.4968,1.044 -0.75,2.1564 -0.75,3.3552 0,0.7896 0.0864,1.5312 0.264,2.2332 0.174,0.6936 0.438,1.3368 0.7896,1.9224 0.3504,0.6144 0.7512,1.1412 1.1892,1.59 0.4392,0.438 0.9168,0.8088 1.4436,1.1016 0.498,0.3216 1.0344,0.6144 1.6104,0.888 0.5748,0.264 1.17,0.5172 1.7832,0.7512 0.6156,0.234 1.2,0.4392 1.7664,0.6144 0.5568,0.1752 1.104,0.3216 1.6296,0.4392 0.4968,0.1164 0.9636,0.2532 1.3944,0.3996 0.4392,0.1548 0.8292,0.3324 1.1796,0.5352 0.702,0.4116 1.0536,0.8796 1.0536,1.4064 0,0.5268 -0.2148,0.9252 -0.6528,1.1892 -0.4296,0.264 -1.0728,0.39 -1.9212,0.39 -1.4928,0 -2.898,-0.2736 -4.2048,-0.828 -1.3164,-0.5568 -2.5272,-1.3956 -3.6384,-2.5068l-5.0904 5.9688c1.4616,1.608 3.228,2.8092 5.304,3.6084 2.0688,0.7908 4.44,1.1916 7.1028,1.1916 1.9608,0 3.7164,-0.2256 5.2572,-0.6648 1.5312,-0.4488 2.8464,-1.1208 3.9312,-2.028 1.0824,-0.8784 1.8912,-1.854 2.4192,-2.9364 0.5352,-1.0728 0.8004,-2.244 0.8004,-3.5016 0,-0.9948 -0.1176,-1.902 -0.3636,-2.7312 -0.2328,-0.8184 -0.6024,-1.5708 -1.1016,-2.2428 -0.498,-0.6432 -1.0344,-1.2012 -1.62,-1.6596 -0.5844,-0.4668 -1.2192,-0.8292 -1.8912,-1.092 -0.702,-0.264 -1.404,-0.5064 -2.0976,-0.7416 -0.702,-0.2244 -1.3848,-0.4284 -2.058,-0.6036 -0.672,-0.1476 -1.2984,-0.3228 -1.8828,-0.5184 -0.5844,-0.1848 -1.1304,-0.3888 -1.6284,-0.5952 -0.498,-0.204 -0.8688,-0.4272 -1.1016,-0.672 -0.2448,-0.2436 -0.36,-0.5268 -0.36,-0.8484zm21.654 -8.0772l-5.3268 0 0 8.2524 5.268 0 0 8.838c0,3.8028 0.936,6.7296 2.8092,8.778 0.9072,1.0236 1.9896,1.7844 3.2484,2.2932 1.2588,0.4968 2.6928,0.7512 4.3008,0.7512 1.8144,0 3.4428,-0.2652 4.878,-0.8004 1.4436,-0.528 2.7012,-1.3368 3.7848,-2.4192l-4.0968 -6.9648c-0.3528,0.4392 -0.7716,0.7704 -1.2696,1.0044 -0.4872,0.2256 -1.0428,0.342 -1.6572,0.342 -0.7908,0 -1.3848,-0.2628 -1.7952,-0.8004 -0.3996,-0.5256 -0.6036,-1.3356 -0.6036,-2.4192l0 -8.6028 7.0224 0 0 -8.2524 -7.1412 0 0 -7.608 -9.4212 0 0 7.608zm36.5784 28.9128c1.17,0 2.292,-0.1068 3.3744,-0.3132 1.0728,-0.2148 2.0964,-0.5376 3.0624,-0.9744 0.966,-0.4392 1.8252,-0.9276 2.5848,-1.4544 0.7524,-0.5364 1.3956,-1.122 1.9212,-1.7652l-4.7988 -6.3792c-1.6968,1.7556 -3.6276,2.634 -5.7936,2.634 -0.7596,0 -1.4616,-0.0996 -2.106,-0.3024 -0.6432,-0.1956 -1.2288,-0.4896 -1.7556,-0.8688 -0.5268,-0.3804 -0.966,-0.8184 -1.3272,-1.3356 -0.3516,-0.5076 -0.6336,-1.0932 -0.8388,-1.7664l19.02 0c0.0588,-0.2928 0.108,-0.6816 0.1368,-1.1796 0.03,-0.4884 0.0396,-1.074 0.0396,-1.746 0,-2.0496 -0.3516,-3.9216 -1.044,-5.628 -0.702,-1.6968 -1.7364,-3.2388 -3.1116,-4.6152 -1.4052,-1.374 -2.9652,-2.3988 -4.692,-3.0816 -1.7256,-0.672 -3.618,-1.014 -5.6664,-1.014 -2.0196,0 -3.8916,0.3612 -5.598,1.092 -1.7184,0.7224 -3.27,1.8048 -4.644,3.2388 -1.4052,1.4628 -2.4588,3.072 -3.1596,4.8384 -0.702,1.7556 -1.0548,3.6768 -1.0548,5.7552 0,2.0772 0.3708,3.9888 1.1028,5.7444 0.7416,1.7664 1.8528,3.3552 3.3456,4.7892 1.4628,1.434 3.1116,2.5176 4.9548,3.2388 1.8336,0.7308 3.852,1.0932 6.048,1.0932zm-0.8196 -21.8892c1.2,0 2.184,0.3024 2.9556,0.9168 0.7692,0.6048 1.3452,1.512 1.7256,2.712l-9.3636 0c0.4104,-1.2 1.0044,-2.1072 1.7964,-2.712 0.78,-0.6144 1.7448,-0.9168 2.886,-0.9168zm18.9624 21.0108l9.4212 0 0 -15.4512c0,-0.702 0.0984,-1.3356 0.3024,-1.8912 0.1956,-0.5664 0.4884,-1.0644 0.8676,-1.5036 0.762,-0.8172 1.7556,-1.2288 2.9844,-1.2288 1.23,0 2.226,0.4116 2.9856,1.2288 0.3804,0.4392 0.6648,0.9372 0.8388,1.5036 0.186,0.5556 0.2736,1.1892 0.2736,1.8912l0 15.4512 9.4212 0 0 -15.4512c0,-0.702 0.0984,-1.3356 0.3048,-1.8912 0.1944,-0.5664 0.486,-1.0644 0.8664,-1.5036 0.762,-0.8172 1.7556,-1.2288 2.9844,-1.2288 1.23,0 2.2236,0.4116 2.9856,1.2288 0.3804,0.4392 0.6636,0.9372 0.8388,1.5036 0.186,0.5556 0.2724,1.1892 0.2724,1.8912l0 15.4512 9.4224 0 0 -16.7388c0,-1.9308 -0.234,-3.648 -0.7128,-5.1408 -0.4668,-1.5024 -1.188,-2.7888 -2.154,-3.8712 -1.932,-2.106 -4.5648,-3.1608 -7.902,-3.1608 -1.812,0 -3.4224,0.438 -4.818,1.3248 -1.404,0.8796 -2.5836,2.2164 -3.5496,3.9996 -0.8496,-1.7832 -2.0004,-3.12 -3.4632,-3.9996 -1.4544,-0.8868 -3.2088,-1.3248 -5.2572,-1.3248 -1.7268,0 -3.2196,0.4008 -4.4664,1.1904 -1.26,0.7992 -2.2644,1.998 -3.0252,3.6084l0 -3.9216 -9.4212 0 0 28.0344zm59.3436 -19.9572c0,-0.498 0.2052,-0.8772 0.6144,-1.1316 0.4092,-0.264 1.0248,-0.39 1.8432,-0.39 1.3176,0 2.5272,0.2436 3.6288,0.7416 1.1016,0.4956 2.0784,1.248 2.9256,2.2428l5.1516 -5.5008c-1.2,-1.6392 -2.7996,-2.868 -4.7904,-3.6876 -1.9992,-0.8184 -4.3992,-1.2288 -7.2072,-1.2288 -3.5712,0 -6.3792,0.8772 -8.4288,2.634 -1.0236,0.9072 -1.7844,1.8732 -2.292,2.9064 -0.4968,1.044 -0.75,2.1564 -0.75,3.3552 0,0.7896 0.0876,1.5312 0.264,2.2332 0.174,0.6936 0.438,1.3368 0.7884,1.9224 0.3516,0.6144 0.7524,1.1412 1.1904,1.59 0.4392,0.438 0.9168,0.8088 1.4424,1.1016 0.4992,0.3216 1.0344,0.6144 1.6116,0.888 0.5748,0.264 1.1688,0.5172 1.7844,0.7512 0.6144,0.234 1.2,0.4392 1.764,0.6144 0.558,0.1752 1.104,0.3216 1.6308,0.4392 0.4956,0.1164 0.9648,0.2532 1.3932,0.3996 0.4404,0.1548 0.8304,0.3324 1.1808,0.5352 0.702,0.4116 1.0536,0.8796 1.0536,1.4064 0,0.5268 -0.2148,0.9252 -0.6528,1.1892 -0.4284,0.264 -1.0728,0.39 -1.9212,0.39 -1.4928,0 -2.898,-0.2736 -4.2048,-0.828 -1.3152,-0.5568 -2.5272,-1.3956 -3.6396,-2.5068l-5.0904 5.9688c1.4628,1.608 3.228,2.8092 5.3064,3.6084 2.0676,0.7908 4.4376,1.1916 7.1016,1.1916 1.9608,0 3.7152,-0.2256 5.256,-0.6648 1.5324,-0.4488 2.8476,-1.1208 3.9312,-2.028 1.0836,-0.8784 1.8924,-1.854 2.4204,-2.9364 0.5352,-1.0728 0.8004,-2.244 0.8004,-3.5016 0,-0.9948 -0.1188,-1.902 -0.3624,-2.7312 -0.2328,-0.8184 -0.6036,-1.5708 -1.1028,-2.2428 -0.4968,-0.6432 -1.0344,-1.2012 -1.62,-1.6596 -0.5844,-0.4668 -1.2192,-0.8292 -1.89,-1.092 -0.7032,-0.264 -1.4064,-0.5064 -2.0988,-0.7416 -0.7008,-0.2244 -1.3848,-0.4284 -2.058,-0.6036 -0.672,-0.1476 -1.2972,-0.3228 -1.8828,-0.5184 -0.5856,-0.1848 -1.1304,-0.3888 -1.6272,-0.5952 -0.4992,-0.204 -0.87,-0.4272 -1.1028,-0.672 -0.2448,-0.2436 -0.3612,-0.5268 -0.3612,-0.8484z"/>
   <rect id="_180322048" class="fil1" x="157.111" y="157.111" width="512.905" height="48.3472"/>
  </g>
 </g>
</svg>
